<?xml version="1.0" encoding="UTF-8" standalone="no"?>
<!DOCTYPE svg PUBLIC "-//W3C//DTD SVG 1.1//EN" "http://www.w3.org/Graphics/SVG/1.1/DTD/svg11.dtd">
<svg xmlns="http://www.w3.org/2000/svg" version="1.1" viewBox="0 0 648 648" width="648.0pt" height="648.0pt">
<path d="M 0.00 0.00 L 648.00 0.00 L 648.00 648.00 L 0.00 648.00 L 0.00 0.00 Z" fill="#16182e" />
<path d="M 284.92 63.69 C 291.43 63.10 298.14 62.91 304.31 65.38 C 315.32 69.51 324.42 79.44 327.00 90.99 C 328.10 95.79 327.63 101.08 327.71 106.00 C 327.73 166.67 327.74 227.33 327.72 288.00 C 328.64 304.62 328.56 321.38 327.70 338.00 C 327.89 351.03 327.30 364.03 328.29 377.00 C 328.36 419.66 328.28 462.34 328.31 505.00 C 328.41 509.71 327.60 514.25 328.05 518.94 C 328.52 525.10 328.19 531.29 328.37 537.49 C 332.10 537.48 335.84 537.51 339.57 537.54 C 339.59 549.38 339.60 561.22 339.60 573.06 C 333.29 573.89 327.21 572.16 320.92 572.90 C 315.14 573.54 309.41 573.30 303.61 573.33 C 303.36 561.41 303.55 549.47 303.55 537.55 C 307.20 537.50 310.84 537.46 314.49 537.44 C 314.64 496.11 314.54 454.77 314.54 413.44 C 310.57 417.17 306.62 420.91 302.84 424.84 C 293.31 434.65 283.55 444.22 273.91 453.93 C 272.92 455.06 271.54 456.17 271.64 457.83 C 271.46 467.87 271.77 477.95 271.68 488.00 C 271.61 491.18 271.92 494.30 272.42 497.44 C 276.11 497.40 279.80 497.44 283.50 497.49 C 283.52 509.19 283.48 520.90 283.49 532.60 C 271.46 532.76 259.42 532.63 247.39 532.66 C 247.51 520.97 247.50 509.28 247.50 497.59 C 251.12 497.54 254.74 497.49 258.36 497.42 C 258.23 485.46 258.72 473.45 258.07 461.51 C 240.17 461.55 222.28 461.56 204.38 461.53 C 204.27 473.47 204.27 485.44 204.43 497.39 C 208.14 497.41 211.84 497.45 215.55 497.48 C 215.54 509.21 215.47 520.93 215.51 532.65 C 203.52 532.72 191.52 532.68 179.53 532.61 C 179.41 520.92 179.53 509.24 179.49 497.55 C 183.16 497.50 186.83 497.47 190.50 497.45 C 190.54 485.49 190.69 473.52 190.50 461.56 C 179.46 461.46 168.43 461.59 157.40 461.52 C 156.69 465.51 156.55 469.49 156.63 473.54 C 144.90 473.48 133.17 473.58 121.44 473.55 C 121.38 461.49 121.41 449.44 121.50 437.38 C 133.19 437.29 144.89 437.38 156.58 437.35 C 156.57 440.65 156.40 444.01 156.73 447.30 C 157.32 448.08 158.02 448.43 158.85 448.34 C 169.37 448.46 179.92 448.43 190.44 448.35 C 190.61 434.04 190.53 419.73 190.48 405.42 C 163.85 405.35 137.22 405.19 110.60 405.44 C 110.63 409.16 110.63 412.88 110.61 416.60 C 98.85 416.61 87.10 416.67 75.34 416.64 C 75.32 404.63 75.21 392.61 75.39 380.59 C 87.12 380.56 98.85 380.61 110.58 380.54 C 110.61 384.20 110.62 387.85 110.62 391.51 C 157.16 391.62 203.71 391.56 250.24 391.52 C 259.24 382.74 267.67 373.42 276.62 364.60 C 276.69 352.40 276.68 340.20 276.62 328.00 C 276.62 325.47 276.80 322.94 277.07 320.43 C 281.51 320.38 285.95 320.37 290.39 320.43 C 290.48 336.71 290.33 352.99 290.39 369.28 C 281.58 378.81 272.32 387.95 263.24 397.22 C 260.68 399.79 258.24 403.34 254.98 405.00 C 251.77 405.65 248.27 405.26 245.00 405.31 C 231.45 405.28 217.90 405.26 204.36 405.37 C 204.37 419.59 204.35 433.81 204.37 448.03 C 217.55 448.69 230.80 448.15 244.00 448.32 C 248.71 448.27 253.45 448.51 258.16 448.28 C 260.19 448.36 261.79 446.44 263.18 445.18 C 272.94 435.28 282.74 425.40 292.66 415.66 C 300.30 408.84 307.37 401.45 314.48 394.08 C 314.62 364.85 314.46 335.60 314.55 306.37 C 306.55 306.31 298.55 306.37 290.55 306.33 C 290.34 284.87 290.62 263.41 290.46 241.96 C 290.33 232.36 286.13 223.34 279.52 216.49 C 270.91 207.77 262.17 199.17 253.49 190.52 C 250.61 187.67 247.84 184.86 244.61 182.41 C 236.56 176.15 226.24 172.40 216.00 172.58 C 200.65 172.58 185.32 172.58 169.97 172.59 C 158.87 173.00 148.50 163.72 147.42 152.72 C 147.10 147.46 147.56 142.19 147.07 136.93 C 146.36 130.08 146.89 123.32 146.55 116.46 C 150.58 112.88 155.08 110.50 159.56 107.53 C 180.49 94.57 203.01 84.24 226.57 77.05 C 227.04 90.08 225.96 103.30 227.53 116.24 C 229.65 130.03 241.90 141.88 256.00 142.60 C 263.33 142.77 270.67 142.66 278.00 142.62 C 280.57 142.57 283.06 143.06 285.56 143.63 C 285.87 154.22 285.52 164.82 285.63 175.41 C 290.10 175.49 294.56 175.51 299.03 175.51 C 299.70 167.37 299.19 159.16 299.44 151.00 C 299.50 145.43 299.51 139.87 295.61 135.44 C 292.21 131.35 287.21 129.67 282.02 129.57 C 274.35 129.43 266.67 129.62 259.00 129.53 C 249.91 129.75 241.19 122.01 240.21 112.99 C 239.20 106.11 239.84 98.95 239.69 92.00 C 239.88 85.50 239.21 78.98 240.34 72.70 C 255.01 68.75 269.86 65.69 284.92 63.69 Z" fill="#06c1e5" />
<path d="M 385.88 63.92 C 400.19 66.33 414.43 69.01 428.43 72.90 C 428.58 84.60 428.50 96.30 428.57 108.00 C 428.57 111.91 428.64 115.50 426.82 119.08 C 423.80 124.95 417.60 129.45 410.87 129.52 C 403.24 129.67 395.61 129.41 387.99 129.59 C 383.92 129.73 379.43 130.40 376.05 132.82 C 371.78 135.77 369.28 140.78 369.44 145.96 C 369.41 155.79 369.34 165.62 369.43 175.44 C 373.80 175.45 378.17 175.44 382.54 175.41 C 382.64 167.28 382.54 159.14 382.52 151.00 C 382.49 148.45 382.89 145.97 383.43 143.49 C 392.76 141.78 402.56 143.12 412.03 142.66 C 426.99 142.66 440.38 129.83 441.58 115.02 C 442.84 102.43 442.05 89.86 442.37 77.12 C 458.59 82.06 474.44 88.65 489.52 96.38 C 500.52 102.39 511.28 108.99 521.60 116.10 C 522.44 121.40 522.53 126.62 522.04 131.96 C 521.37 138.65 521.89 145.24 521.64 151.93 C 521.29 161.99 512.97 170.98 503.06 172.42 C 500.75 172.69 498.33 172.69 496.00 172.69 C 483.33 172.61 470.67 172.63 458.00 172.59 C 448.78 172.24 439.72 173.61 431.54 178.05 C 424.12 181.89 419.24 187.62 413.24 193.24 C 405.33 200.66 397.78 208.44 389.99 215.99 C 383.24 222.60 378.31 231.33 378.44 241.00 C 378.55 262.55 378.35 284.09 378.52 305.65 C 370.52 306.03 362.34 305.07 354.49 306.43 C 354.54 335.71 354.61 365.00 354.60 394.29 C 366.98 407.57 380.37 419.96 393.21 432.79 C 398.32 438.12 403.59 443.29 408.75 448.58 C 425.01 448.78 441.30 448.66 457.56 448.60 C 457.54 434.19 457.71 419.77 457.61 405.35 C 443.27 405.28 428.93 405.32 414.60 405.40 C 409.20 400.48 404.21 395.12 399.02 389.99 C 392.26 383.04 385.21 376.35 378.60 369.26 C 378.68 358.50 378.56 347.75 378.63 337.00 C 378.70 331.42 378.38 325.95 379.09 320.39 C 383.49 320.40 387.89 320.40 392.29 320.45 C 392.43 335.11 392.30 349.77 392.41 364.42 C 401.46 373.42 410.48 382.45 419.48 391.49 C 466.13 391.60 512.79 391.64 559.44 391.50 C 559.48 387.88 559.53 384.25 559.58 380.63 C 571.31 380.50 583.05 380.71 594.78 380.48 C 595.17 382.98 595.43 385.47 595.39 388.00 C 595.25 397.52 595.41 407.03 595.33 416.55 C 583.39 416.88 571.43 416.55 559.48 416.65 C 559.47 412.92 559.45 409.19 559.43 405.47 C 530.12 405.23 500.79 405.40 471.47 405.38 C 471.37 419.79 471.51 434.21 471.44 448.62 C 485.16 448.81 498.89 448.66 512.62 448.65 C 513.18 444.93 513.41 441.28 513.39 437.52 C 525.05 437.55 536.72 437.44 548.39 437.52 C 548.46 449.53 548.39 461.55 548.44 473.56 C 536.77 473.70 525.10 473.48 513.43 473.57 C 513.19 469.83 512.80 466.10 512.56 462.35 C 498.87 462.37 485.18 462.28 471.49 462.40 C 471.44 474.06 471.35 485.73 471.53 497.39 C 475.20 497.43 478.87 497.48 482.54 497.53 C 482.55 509.26 482.47 520.98 482.61 532.70 C 476.47 533.65 470.12 533.46 463.93 533.07 C 458.15 532.46 452.44 532.75 446.64 532.59 C 446.65 520.93 446.51 509.27 446.63 497.60 C 450.28 497.55 453.93 497.51 457.58 497.49 C 457.72 485.77 457.63 474.05 457.63 462.33 C 439.75 462.34 421.87 462.55 403.99 462.30 C 397.63 455.79 391.18 449.38 384.43 443.27 C 384.26 461.30 384.35 479.34 384.49 497.37 C 388.22 497.41 391.94 497.46 395.67 497.49 C 395.72 509.21 395.66 520.93 395.68 532.65 C 383.90 532.67 372.11 532.68 360.33 532.67 C 360.29 520.97 360.37 509.26 360.39 497.55 C 363.80 497.52 367.21 497.49 370.62 497.50 C 370.74 474.89 370.70 452.26 370.56 429.66 C 361.46 420.68 352.55 411.52 343.37 402.62 C 341.76 401.06 341.31 400.36 341.34 398.04 C 341.37 298.66 341.52 199.35 341.35 100.00 C 340.27 85.36 349.70 71.25 363.15 65.80 C 370.18 62.82 378.44 62.85 385.88 63.92 Z" fill="#06c1e5" />
<path d="M 133.43 126.71 C 133.70 135.14 133.28 143.60 133.62 152.02 C 134.39 160.24 137.75 168.49 143.51 174.49 C 150.04 181.60 159.39 185.70 169.03 185.87 C 168.42 189.99 165.63 192.20 163.70 195.66 C 157.59 206.49 156.68 220.05 161.63 231.51 C 163.30 236.70 167.30 240.31 169.20 245.33 C 162.13 245.48 155.07 245.32 148.00 245.37 C 143.59 245.39 139.32 245.32 135.05 244.05 C 131.05 242.80 127.91 239.89 124.99 237.01 C 110.04 222.14 95.18 207.18 80.27 192.26 C 86.62 179.39 94.39 166.84 103.83 156.00 C 111.14 147.09 119.29 139.51 127.46 131.46 C 129.29 129.67 131.33 128.16 133.43 126.71 Z" fill="#06c1e5" />
<path d="M 535.61 127.00 C 550.17 139.03 563.63 152.83 574.34 168.44 C 579.50 176.34 584.38 184.32 588.52 192.81 C 574.76 205.95 561.61 219.71 548.02 233.03 C 544.83 236.09 541.74 239.69 538.06 242.13 C 533.83 244.87 528.95 245.50 524.00 245.45 C 515.89 245.34 507.79 245.46 499.68 245.32 C 502.30 239.99 506.29 236.02 508.05 230.21 C 513.54 215.38 509.76 197.46 498.32 186.45 C 501.79 185.81 505.32 185.42 508.75 184.59 C 523.35 180.99 534.99 167.13 535.48 152.00 C 535.67 143.67 535.35 135.33 535.61 127.00 Z" fill="#06c1e5" />
<path d="M 204.00 186.28 C 209.00 186.34 214.01 186.23 219.01 186.37 C 226.72 186.46 234.00 190.26 239.50 195.48 C 248.62 204.36 257.38 213.61 266.57 222.42 C 270.08 225.80 273.39 228.89 275.33 233.49 C 277.00 237.66 277.13 242.55 277.30 247.00 C 277.30 264.66 277.29 282.33 277.33 300.00 C 277.31 302.15 276.95 304.24 276.58 306.34 C 268.72 306.23 260.86 306.38 253.00 306.30 C 247.06 306.22 241.26 306.60 235.35 305.78 C 235.38 289.19 235.22 272.59 235.45 256.00 C 235.57 252.83 235.11 249.84 234.34 246.78 C 231.95 245.61 229.80 244.42 227.02 244.60 C 219.35 244.64 211.67 244.62 204.00 244.68 C 199.48 244.68 195.30 244.91 191.03 243.17 C 181.78 240.01 174.55 231.58 172.62 222.05 C 172.00 216.36 171.85 209.78 174.21 204.44 C 177.56 196.22 184.92 189.61 193.46 187.18 C 196.74 186.15 200.58 186.31 204.00 186.28 Z" fill="#06c1e5" />
<path d="M 461.00 186.28 C 465.04 186.34 469.20 186.07 473.20 186.65 C 480.46 188.02 486.93 192.50 491.32 198.36 C 496.21 204.99 498.25 213.94 496.47 222.01 C 494.96 230.08 489.34 237.32 482.25 241.34 C 476.02 244.92 468.03 245.71 461.00 245.15 C 454.98 244.49 449.05 244.67 443.00 244.64 C 440.11 244.71 437.16 244.76 435.19 247.21 C 433.15 249.55 433.54 252.11 433.42 254.99 C 433.47 271.90 433.49 288.81 433.54 305.72 C 427.64 306.74 421.94 306.22 416.00 306.31 C 407.70 306.16 399.86 306.84 391.65 305.41 C 391.82 289.28 391.61 273.14 391.68 257.00 C 391.78 250.16 391.12 242.56 392.86 235.96 C 394.24 231.01 397.38 227.47 401.00 224.01 C 409.30 215.97 417.42 207.76 425.54 199.54 C 430.34 194.65 435.38 190.42 441.96 188.15 C 448.34 185.67 454.31 186.43 461.00 186.28 Z" fill="#06c1e5" />
<path d="M 75.49 206.17 C 85.16 215.96 94.75 225.81 104.74 235.27 C 109.03 239.31 113.00 243.67 117.07 247.93 C 123.27 254.20 130.88 258.79 139.97 258.64 C 167.16 258.51 194.33 258.59 221.52 258.62 C 221.66 274.50 221.76 290.41 221.55 306.30 C 185.68 306.30 149.86 306.36 114.00 306.39 C 92.33 305.82 72.74 290.16 65.93 269.83 C 62.00 259.07 62.95 246.34 65.37 235.34 C 67.31 226.11 69.66 216.77 73.27 208.05 C 73.90 206.57 73.97 206.48 75.49 206.17 Z" fill="#06c1e5" />
<path d="M 594.90 206.31 C 599.49 219.24 602.98 232.47 605.11 246.03 C 608.09 266.29 598.18 287.05 581.01 298.00 C 573.00 303.39 563.71 306.60 554.00 306.44 C 518.51 306.22 483.02 306.35 447.52 306.32 C 446.23 298.04 446.79 289.40 446.75 281.00 C 447.46 273.55 447.22 266.14 447.41 258.67 C 474.61 258.47 501.80 258.57 529.00 258.65 C 537.83 259.01 546.01 254.13 552.07 248.07 C 565.35 234.69 578.81 221.45 591.97 207.95 C 592.84 207.03 593.72 206.64 594.90 206.31 Z" fill="#06c1e5" />
</svg>